<?xml version="1.0" encoding="UTF-8" standalone="no"?>
<!-- Created with Inkscape (http://www.inkscape.org/) -->

<svg
   xmlns:dc="http://purl.org/dc/elements/1.1/"
   xmlns:cc="http://creativecommons.org/ns#"
   xmlns:rdf="http://www.w3.org/1999/02/22-rdf-syntax-ns#"
   xmlns:svg="http://www.w3.org/2000/svg"
   xmlns="http://www.w3.org/2000/svg"
   xmlns:sodipodi="http://sodipodi.sourceforge.net/DTD/sodipodi-0.dtd"
   xmlns:inkscape="http://www.inkscape.org/namespaces/inkscape"
   width="566.55579mm"
   height="276.85321mm"
   viewBox="0 0 566.55579 276.85321"
   version="1.1"
   id="svg8"
   inkscape:version="0.92.4 (5da689c313, 2019-01-14)"
   sodipodi:docname="overlaysvg.svg">
  <defs
     id="defs2" />
  <sodipodi:namedview
     id="base"
     pagecolor="#ffffff"
     bordercolor="#666666"
     borderopacity="1.0"
     inkscape:pageopacity="0.0"
     inkscape:pageshadow="2"
     inkscape:zoom="128"
     inkscape:cx="700.3695"
     inkscape:cy="1412.5726"
     inkscape:document-units="mm"
     inkscape:current-layer="layer1"
     showgrid="false"
     inkscape:window-width="1920"
     inkscape:window-height="1051"
     inkscape:window-x="-9"
     inkscape:window-y="-9"
     inkscape:window-maximized="1" />
  <metadata
     id="metadata5">
    <rdf:RDF>
      <cc:Work
         rdf:about="">
        <dc:format>image/svg+xml</dc:format>
        <dc:type
           rdf:resource="http://purl.org/dc/dcmitype/StillImage" />
        <dc:title></dc:title>
      </cc:Work>
    </rdf:RDF>
  </metadata>
  <g
     inkscape:label="Ebene 1"
     inkscape:groupmode="layer"
     id="layer1"
     transform="translate(276.64815,-125.32618)">
    <path
       id="path3726"
       d="M -110.60998,399.19385 -15.721541,293.70426"
       inkscape:connector-curvature="0"
       style="fill:#000000;fill-opacity:0;fill-rule:evenodd;stroke:none;stroke-width:0.57145447;stroke-linecap:square;stroke-miterlimit:10" />
    <path
       id="path3728"
       d="M -110.60998,399.19385 -15.721541,293.70426"
       inkscape:connector-curvature="0"
       style="fill:none;fill-rule:evenodd;stroke:#e06666;stroke-width:1.71436346;stroke-linecap:butt;stroke-linejoin:round;stroke-miterlimit:10" />
    <path
       id="path3730"
       d="M -197.26558,401.54715 -81.192823,295.28364"
       inkscape:connector-curvature="0"
       style="fill:#000000;fill-opacity:0;fill-rule:evenodd;stroke:none;stroke-width:0.57145447;stroke-linecap:square;stroke-miterlimit:10" />
    <path
       id="path3732"
       d="M -197.26558,401.54715 -81.192823,295.28364"
       inkscape:connector-curvature="0"
       style="fill:none;fill-rule:evenodd;stroke:#e06666;stroke-width:1.71436346;stroke-linecap:butt;stroke-linejoin:round;stroke-miterlimit:10" />
    <path
       id="path3734"
       d="M -30.015395,399.19385 39.171089,291.76041"
       inkscape:connector-curvature="0"
       style="fill:#000000;fill-opacity:0;fill-rule:evenodd;stroke:none;stroke-width:0.57145447;stroke-linecap:square;stroke-miterlimit:10" />
    <path
       id="path3736"
       d="M -30.015395,399.19385 39.171089,291.76041"
       inkscape:connector-curvature="0"
       style="fill:none;fill-rule:evenodd;stroke:#e06666;stroke-width:1.71436346;stroke-linecap:butt;stroke-linejoin:round;stroke-miterlimit:10" />
    <path
       id="path3738"
       d="m -274.11646,347.82744 113.31897,-77.64581"
       inkscape:connector-curvature="0"
       style="fill:#000000;fill-opacity:0;fill-rule:evenodd;stroke:none;stroke-width:0.57145447;stroke-linecap:square;stroke-miterlimit:10" />
    <path
       id="path3740"
       d="m -274.11646,347.82744 113.31897,-77.64581"
       inkscape:connector-curvature="0"
       style="fill:none;fill-rule:evenodd;stroke:#e06666;stroke-width:1.71436346;stroke-linecap:butt;stroke-linejoin:round;stroke-miterlimit:10" />
    <path
       id="path3742"
       d="M 153.66895,371.35308 H -270.19726"
       inkscape:connector-curvature="0"
       style="fill:#000000;fill-opacity:0;fill-rule:evenodd;stroke:none;stroke-width:0.57145447;stroke-linecap:square;stroke-miterlimit:10" />
    <path
       id="path3744"
       d="M 153.66895,371.35308 H -270.19726"
       inkscape:connector-curvature="0"
       style="fill:none;fill-rule:evenodd;stroke:#e06666;stroke-width:1.14290893;stroke-linecap:butt;stroke-linejoin:round;stroke-miterlimit:10" />
    <path
       id="path3746"
       d="m 158.76705,343.90677 -430.92167,1.1699"
       inkscape:connector-curvature="0"
       style="fill:#000000;fill-opacity:0;fill-rule:evenodd;stroke:none;stroke-width:0.57145447;stroke-linecap:square;stroke-miterlimit:10" />
    <path
       id="path3748"
       d="m 158.76705,343.90677 -430.92167,1.1699"
       inkscape:connector-curvature="0"
       style="fill:none;fill-rule:evenodd;stroke:#e06666;stroke-width:1.14290893;stroke-linecap:butt;stroke-linejoin:round;stroke-miterlimit:10" />
    <path
       id="path3750"
       d="m 163.86364,331.75172 -412.88708,-0.79194"
       inkscape:connector-curvature="0"
       style="fill:#000000;fill-opacity:0;fill-rule:evenodd;stroke:none;stroke-width:0.57145447;stroke-linecap:square;stroke-miterlimit:10" />
    <path
       id="path3752"
       d="m 163.86364,331.75172 -412.88708,-0.79194"
       inkscape:connector-curvature="0"
       style="fill:none;fill-rule:evenodd;stroke:#e06666;stroke-width:1.14290893;stroke-linecap:butt;stroke-linejoin:round;stroke-miterlimit:10" />
    <path
       id="path3754"
       d="M 147.78643,395.66464 172.10251,283.1376"
       inkscape:connector-curvature="0"
       style="fill:#000000;fill-opacity:0;fill-rule:evenodd;stroke:none;stroke-width:0.57145447;stroke-linecap:square;stroke-miterlimit:10" />
    <path
       id="path3756"
       d="M 147.78643,395.66464 172.10251,283.1376"
       inkscape:connector-curvature="0"
       style="fill:none;fill-rule:evenodd;stroke:#e06666;stroke-width:1.71436346;stroke-linecap:butt;stroke-linejoin:round;stroke-miterlimit:10" />
    <path
       id="path3758"
       d="m -270.19577,228.62745 15.29278,-2.35182 110.18123,-23.91859 19.60494,5.48956 36.073619,-10.58616 20.389387,10.19469 13.722404,9.01728 31.761468,3.92219 19.9964094,-21.95825 53.7182176,-5.48956 15.684236,2.74478 17.6446,-9.80322 23.918599,-0.39147 49.0131,1.56888 80.77306,-12.15503 47.05277,-16.86166 4.70511,242.71217 -140.7653,-1.17591 25.87896,-118.80704 -141.94121,-2.3533 -8.627305,-10.97914 4.31367,-5.88102 37.249528,0.39146 16.468689,-8.23285 40.778738,5.48806 6.27401,-9.41025 -22.7427,-8.62581 -20.38935,5.0981 -27.839296,-3.13775 -7.449903,-5.0966 -35.680658,-1.1774 -33.721814,4.31365 2.744788,-7.05843 -52.540816,-2.35181 -44.700941,-8.62582 -29.01519,9.41025 -37.24953,-8.23434 -45.09241,13.7239 -51.36491,-5.09808 z"
       inkscape:connector-curvature="0"
       style="fill:#ffd966;fill-opacity:0.48460005;fill-rule:evenodd;stroke:none;stroke-width:0.57145447;stroke-linecap:square;stroke-miterlimit:10" />
    <path
       id="path3760"
       d="m -270.19577,228.62745 15.29278,-2.35182 110.18123,-23.91859 19.60494,5.48956 36.073619,-10.58616 20.389387,10.19469 13.722404,9.01728 31.761468,3.92219 19.9964094,-21.95825 53.7182176,-5.48956 15.684236,2.74478 17.6446,-9.80322 23.918599,-0.39147 49.0131,1.56888 80.77306,-12.15503 47.05277,-16.86166 4.70511,242.71217 -140.7653,-1.17591 25.87896,-118.80704 -141.94121,-2.3533 -8.627305,-10.97914 4.31367,-5.88102 37.249528,0.39146 16.468689,-8.23285 40.778738,5.48806 6.27401,-9.41025 -22.7427,-8.62581 -20.38935,5.0981 -27.839296,-3.13775 -7.449903,-5.0966 -35.680658,-1.1774 -33.721814,4.31365 2.744788,-7.05843 -52.540816,-2.35181 -44.700941,-8.62582 -29.01519,9.41025 -37.24953,-8.23434 -45.09241,13.7239 -51.36491,-5.09808 z"
       inkscape:connector-curvature="0"
       style="fill:none;fill-rule:evenodd;stroke:#ffd966;stroke-width:1.14290893;stroke-linecap:butt;stroke-linejoin:round;stroke-miterlimit:10" />
    <path
       id="path3762"
       d="m 75.247719,166.67638 0.784424,-31.3685 -49.406045,1.1759 V 125.89763 H 15.64848 l 0.782922,18.8205 -21.5652748,0.39147 -10.9791152,-5.48957 -10.194696,-0.39146 -4.705133,9.01878 v 12.93947 l -10.194674,0.39146 -1.567385,-15.29128 -10.587657,-0.39296 0.392978,13.7239 -14.508343,1.1759 -1.960346,-7.05693 h -10.194697 l -1.960346,-5.88253 -10.587657,0.78443 v 19.99791 l -6.273998,-0.39296 -0.782927,-11.76207 -10.194691,-3.92219 -0.39296,9.01878 -11.3706,0.78445 -0.39148,8.23433 -11.37209,6.66547 -2.74478,8.23435 -23.52563,-1.96034 -10.97912,-4.70513 -5.48956,-17.25313 -14.11538,-0.39146 v 23.91859 l 14.50835,10.19468 28.23074,6.66548 21.17383,5.88103 34.897704,-10.97913 -23.134154,-5.88103 9.41025,-7.84288 14.899826,-0.78293 12.546483,-1.96185 15.29279,-0.78294 9.410255,9.41025 16.860153,-4.31365 8.23435,-6.66546 H 0.35569025 l 9.01878585,-3.52922 10.1946789,3.92068 10.586154,-5.48956 14.508366,5.48956 14.508332,-9.41025 z"
       inkscape:connector-curvature="0"
       style="fill:#cc4125;fill-opacity:0.37689999;fill-rule:evenodd;stroke:none;stroke-width:0.57145447;stroke-linecap:square;stroke-miterlimit:10" />
    <path
       id="path3764"
       d="m 75.247719,166.67638 0.784424,-31.3685 -49.406045,1.1759 V 125.89763 H 15.64848 l 0.782922,18.8205 -21.5652748,0.39147 -10.9791152,-5.48957 -10.194696,-0.39146 -4.705133,9.01878 v 12.93947 l -10.194674,0.39146 -1.567385,-15.29128 -10.587657,-0.39296 0.392978,13.7239 -14.508343,1.1759 -1.960346,-7.05693 h -10.194697 l -1.960346,-5.88253 -10.587657,0.78443 v 19.99791 l -6.273998,-0.39296 -0.782927,-11.76207 -10.194691,-3.92219 -0.39296,9.01878 -11.3706,0.78445 -0.39148,8.23433 -11.37209,6.66547 -2.74478,8.23435 -23.52563,-1.96034 -10.97912,-4.70513 -5.48956,-17.25313 -14.11538,-0.39146 v 23.91859 l 14.50835,10.19468 28.23074,6.66548 21.17383,5.88103 34.897704,-10.97913 -23.134154,-5.88103 9.41025,-7.84288 14.899826,-0.78293 12.546483,-1.96185 15.29279,-0.78294 9.410255,9.41025 16.860153,-4.31365 8.23435,-6.66546 H 0.35569025 l 9.01878585,-3.52922 10.1946789,3.92068 10.586154,-5.48956 14.508366,5.48956 14.508332,-9.41025 z"
       inkscape:connector-curvature="0"
       style="fill:none;fill-rule:evenodd;stroke:#cc4125;stroke-width:1.14290893;stroke-linecap:butt;stroke-linejoin:round;stroke-miterlimit:10" />
    <path
       id="path3766"
       d="m -112.57032,190.59347 22.742689,6.274 35.680645,19.21347 31.368502,3.92068 18.8205045,-21.95825 56.0715465,-5.88103 11.763539,4.31367 18.820505,-10.97913 75.283509,1.56887 79.59715,-12.54799 42.7391,-14.89982 1.17591,-15.29128 -39.99432,3.13625 -19.99641,6.66547 -21.56679,-2.35181 -4.70511,-8.23435 -3.52772,7.05694 -60.77664,1.56887 -6.274,-8.23434 -47.8357,4.31366 -0.392984,19.21196 -16.468689,1.56888 -15.291259,10.58765 -12.548003,-7.05843 -12.155036,5.88103 -9.80173,-3.13625 -9.0187746,3.52922 -28.6237144,-0.39297 -7.058446,6.274 -17.644594,4.31365 -10.194679,-10.19468 -14.899829,1.96035 -26.270412,2.74478 z"
       inkscape:connector-curvature="0"
       style="fill:#e06666;fill-opacity:0.33850002;fill-rule:evenodd;stroke:none;stroke-width:0.57145447;stroke-linecap:square;stroke-miterlimit:10" />
    <path
       id="path3768"
       d="m -112.57032,190.59347 22.742689,6.274 35.680645,19.21347 31.368502,3.92068 18.8205045,-21.95825 56.0715465,-5.88103 11.763539,4.31367 18.820505,-10.97913 75.283509,1.56887 79.59715,-12.54799 42.7391,-14.89982 1.17591,-15.29128 -39.99432,3.13625 -19.99641,6.66547 -21.56679,-2.35181 -4.70511,-8.23435 -3.52772,7.05694 -60.77664,1.56887 -6.274,-8.23434 -47.8357,4.31366 -0.392984,19.21196 -16.468689,1.56888 -15.291259,10.58765 -12.548003,-7.05843 -12.155036,5.88103 -9.80173,-3.13625 -9.0187746,3.52922 -28.6237144,-0.39297 -7.058446,6.274 -17.644594,4.31365 -10.194679,-10.19468 -14.899829,1.96035 -26.270412,2.74478 z"
       inkscape:connector-curvature="0"
       style="fill:none;fill-rule:evenodd;stroke:#e06666;stroke-width:1.14290893;stroke-linecap:butt;stroke-linejoin:round;stroke-miterlimit:10" />
    <path
       id="path3770"
       d="m -271.37167,228.62745 124.29659,-26.66188 -28.23074,-5.48956 -14.90132,-10.97913 v -14.50835 l -81.5575,0.39298 z"
       inkscape:connector-curvature="0"
       style="fill:#e06666;fill-opacity:0.33850002;fill-rule:evenodd;stroke:none;stroke-width:0.57145447;stroke-linecap:square;stroke-miterlimit:10" />
    <path
       id="path3772"
       d="m -271.37167,228.62745 124.29659,-26.66188 -28.23074,-5.48956 -14.90132,-10.97913 v -14.50835 l -81.5575,0.39298 z"
       inkscape:connector-curvature="0"
       style="fill:none;fill-rule:evenodd;stroke:#e06666;stroke-width:1.14290893;stroke-linecap:butt;stroke-linejoin:round;stroke-miterlimit:10" />
    <path
       id="path3774"
       d="m -269.8028,234.50998 45.48387,4.70511 45.09091,-13.33093 36.07363,7.84138 29.01668,-9.41026 44.699449,8.62582 51.36491,1.96034 -2.351826,6.66548 36.856562,-3.92069 33.721814,1.56886 7.056959,4.70514 27.840754,3.52921 20.780868,-5.0981 23.13414,6.66548 -6.66548,9.01878 -40.77874,-5.48956 -15.29279,7.4499 -39.602835,0.39297 -3.920692,7.84138 9.410267,11.3706 140.37379,2.35331 -25.87893,117.23965 -418.76663,1.17591 z"
       inkscape:connector-curvature="0"
       style="fill:#93c47d;fill-opacity:0.46149998;fill-rule:evenodd;stroke:none;stroke-width:0.57145447;stroke-linecap:square;stroke-miterlimit:10" />
    <path
       id="path3776"
       d="m -269.8028,234.50998 45.48387,4.70511 45.09091,-13.33093 36.07363,7.84138 29.01668,-9.41026 44.699449,8.62582 51.36491,1.96034 -2.351826,6.66548 36.856562,-3.92069 33.721814,1.56886 7.056959,4.70514 27.840754,3.52921 20.780868,-5.0981 23.13414,6.66548 -6.66548,9.01878 -40.77874,-5.48956 -15.29279,7.4499 -39.602835,0.39297 -3.920692,7.84138 9.410267,11.3706 140.37379,2.35331 -25.87893,117.23965 -418.76663,1.17591 z"
       inkscape:connector-curvature="0"
       style="fill:none;fill-rule:evenodd;stroke:#93c47d;stroke-width:1.14290893;stroke-linecap:butt;stroke-linejoin:round;stroke-miterlimit:10" />
  </g>
</svg>
